<?xml version="1.0"?>
<svg xmlns="http://www.w3.org/2000/svg" xmlns:xlink="http://www.w3.org/1999/xlink" viewBox="0 0 64 64" width="512" height="512"><defs><linearGradient id="New_Gradient_Swatch_5" x1="12.293" y1="18.086" x2="57.104" y2="62.896" gradientUnits="userSpaceOnUse"><stop offset="0" stop-color="#662d91"/><stop offset="0.437" stop-color="#3873b3"/><stop offset="1" stop-color="#00c9dd"/></linearGradient></defs><g id="Gradient"><path d="M15,48a3,3,0,1,0,3,3A3,3,0,0,0,15,48Zm0,4a1,1,0,1,1,1-1A1,1,0,0,1,15,52Zm34-4a3,3,0,1,0,3,3A3,3,0,0,0,49,48Zm0,4a1,1,0,1,1,1-1A1,1,0,0,1,49,52Zm12-6H60V16a1,1,0,0,0-1-1H52V8a1,1,0,0,0-1-1H25a1,1,0,0,0-1,1v7H16.617a3.014,3.014,0,0,0-2.933,2.371L11.116,29.354,4.5,33.132A1,1,0,0,0,4,34V46H3a1,1,0,0,0-1,1v4a1,1,0,0,0,1,1H8.08a6.978,6.978,0,0,0,2.031,4H2v2H58V56H53.889a6.978,6.978,0,0,0,2.031-4H61a1,1,0,0,0,1-1V47A1,1,0,0,0,61,46Zm-7,0V44h4v2Zm4-4H56V40h2Zm0-4H55a1,1,0,0,0-1,1v3H53a1,1,0,0,0-1,1v1.685A6.953,6.953,0,0,0,44.111,46H40V41a1,1,0,0,0-1-1H31.414l4-4H56a1,1,0,0,0,1-1V32a1,1,0,0,0-1-1V24a1,1,0,0,0,1-1V20a1,1,0,0,0-1-1H52.414l2-2H58ZM42.08,50H40V48h2.685A6.937,6.937,0,0,0,42.08,50ZM21.92,50a6.937,6.937,0,0,0-.605-2H26v2ZM26,29H23.414L26,26.414Zm0-5.414L20.586,29H15.414l8-8H26ZM16,31H26v2H23v2h3V46H19.889A6.977,6.977,0,0,0,16,44.08Zm12,6.414,1.531-1.53c.017.009.037.013.055.021l.063.024A.977.977,0,0,0,30,36h2.586l-4,4H28ZM44,21H55v1H31V21Zm4.414-4h3.172l-2,2H46.414ZM32,24H54v7H52V28a1,1,0,0,0-1-1H47a1,1,0,0,0-1,1v3H32Zm3,10H31V33H55v1Zm15-3H48V29h2ZM26,9H50v6H26Zm-9.383,8H45.586l-2,2H30a1,1,0,0,0-1,1v3a1,1,0,0,0,1,1v7a1,1,0,0,0-1,1v1.586l-1,1V20a1,1,0,0,0-1-1H15.379l.26-1.21A1,1,0,0,1,16.617,17Zm-1.666,4h5.635l-7.172,7.172ZM6,37H9v2H6Zm0,4h4a1,1,0,0,0,1-1V36a1,1,0,0,0-1-1H6v-.42L12.265,31H14V44.08A6.977,6.977,0,0,0,10.111,46H6ZM4,48H8.685a6.937,6.937,0,0,0-.605,2H4Zm6,3a5,5,0,1,1,5,5A5.006,5.006,0,0,1,10,51Zm11.92,1H26v4H19.889A6.978,6.978,0,0,0,21.92,52ZM28,56V42H38V56Zm12,0V52h2.08a6.978,6.978,0,0,0,2.031,4Zm9,0a5,5,0,1,1,5-5A5.006,5.006,0,0,1,49,56Zm11-6H55.92a6.937,6.937,0,0,0-.605-2H60Zm0,6h2v2H60ZM28,11H44v2H28Zm20,2H46V11h2Z" style="fill:url(#New_Gradient_Swatch_5)"/></g></svg>
